{"glyphs":{"0":{"ha":582,"x_min":0,"x_max":592,"o":"m 315 702 l 330 702 q 587 554 587 702 l 592 515 l 587 176 q 410 5 587 5 l 315 0 l 234 0 q 43 47 75 0 q 0 239 0 93 l 0 482 q 100 678 0 648 q 315 702 177 702 m 86 506 q 115 110 86 110 q 153 86 127 86 l 172 86 l 391 72 q 501 229 501 72 l 496 487 q 439 625 496 587 l 406 621 l 196 630 q 86 506 86 630 m 320 487 q 358 396 358 487 l 363 349 q 339 215 363 222 l 291 215 q 234 243 251 215 l 234 435 l 239 482 l 248 482 l 272 477 l 320 487 z "},"1":{"ha":413,"x_min":0,"x_max":418,"o":"m 218 677 l 232 677 q 395 631 395 677 q 413 496 413 580 l 413 460 l 408 343 l 418 158 q 288 0 418 0 q 106 28 106 12 q 75 158 75 81 l 75 163 l 79 390 q 37 408 79 406 q 0 515 0 434 l 0 520 q 125 669 0 624 l 218 677 m 93 478 q 167 408 167 469 l 167 367 l 153 163 q 232 70 153 70 l 246 70 q 330 149 330 70 l 325 376 l 325 501 q 292 604 325 604 l 241 608 q 98 548 98 597 l 93 478 z "},"2":{"ha":577,"x_min":0,"x_max":587,"o":"m 73 694 l 146 689 l 398 699 q 587 461 587 699 q 553 320 587 399 l 558 320 q 587 155 587 320 q 529 9 587 9 l 408 0 l 63 0 q 0 233 3 56 l 0 248 q 34 408 0 332 q 14 422 14 408 l 14 583 q 73 694 14 662 m 106 558 l 106 486 l 112 486 q 233 515 194 515 q 306 475 281 515 l 306 471 q 121 369 306 409 q 97 228 97 351 l 97 189 q 141 73 97 73 l 189 68 l 475 73 q 495 160 495 107 l 495 165 l 490 248 q 335 214 372 214 q 267 248 294 214 l 267 257 q 412 340 267 326 q 495 481 481 340 q 432 612 495 577 q 315 631 372 631 l 301 631 q 112 592 112 631 l 106 558 z "},"3":{"ha":572,"x_min":0,"x_max":572,"o":"m 380 690 q 568 492 568 690 q 516 361 568 411 q 572 244 572 319 l 572 211 q 394 9 572 40 l 249 0 q 19 52 19 0 q 0 132 5 52 l 0 145 q 56 333 0 333 l 103 333 l 103 404 l 66 404 q 24 484 24 404 l 24 558 q 89 680 24 666 l 98 680 l 380 690 m 113 544 l 113 484 q 249 516 207 516 q 300 497 300 513 l 300 465 q 267 404 300 404 l 193 394 l 193 342 l 254 342 q 296 319 296 333 l 296 272 q 272 220 288 220 l 239 220 q 98 254 212 220 l 94 197 l 94 155 q 145 80 94 80 l 225 75 l 249 75 q 479 169 423 75 l 488 216 q 413 315 488 315 l 361 352 l 361 366 q 455 427 361 410 q 479 488 479 455 l 479 492 q 413 614 479 574 l 136 614 q 113 544 119 614 z "},"4":{"ha":696,"x_min":0,"x_max":692,"o":"m 294 707 l 545 707 q 613 564 607 707 l 613 510 l 608 417 l 613 397 l 663 397 q 692 285 692 397 q 663 147 692 147 l 633 142 l 618 142 l 618 108 q 456 0 618 0 q 275 39 275 7 q 250 127 250 82 l 250 132 l 201 127 l 138 127 q 0 250 0 127 l 0 265 q 162 696 0 405 q 294 707 210 707 m 299 633 l 235 633 q 103 304 210 633 l 103 275 q 147 201 103 201 l 334 201 l 343 191 l 343 162 q 382 79 343 79 l 471 79 q 520 142 520 79 q 540 216 520 216 l 599 216 l 599 329 l 564 329 q 520 402 520 329 l 520 569 q 486 633 520 633 l 437 637 l 299 633 m 275 530 l 294 530 q 349 481 349 530 l 343 358 l 343 338 l 349 334 l 349 329 l 343 323 l 255 323 q 186 343 186 329 q 275 530 186 530 z "},"5":{"ha":587,"x_min":0,"x_max":576,"o":"m 156 699 l 425 685 l 500 690 q 562 557 562 659 l 562 548 q 543 430 562 496 q 576 260 576 378 l 576 222 q 387 0 576 0 l 373 0 l 123 14 l 52 9 q 0 170 0 60 q 24 264 0 212 l 9 279 l 14 336 l 14 345 l 0 567 q 156 699 0 699 m 113 605 q 99 500 99 569 l 104 331 l 109 317 l 236 321 l 241 321 q 307 269 307 314 l 307 241 q 203 208 279 208 l 199 208 l 104 212 l 99 156 l 109 90 l 312 75 q 477 184 477 75 q 487 250 483 184 q 416 397 479 397 l 350 397 q 274 435 305 397 l 274 473 q 359 505 274 496 l 463 500 l 473 538 l 473 562 q 359 624 473 624 l 326 624 q 113 605 231 624 z "},"6":{"ha":577,"x_min":0,"x_max":577,"o":"m 195 684 l 484 670 l 512 670 q 559 554 559 643 l 559 545 q 530 428 559 428 q 577 256 577 380 q 498 18 577 81 q 405 0 470 7 l 345 5 l 312 5 l 298 9 l 275 5 l 186 5 q 9 168 9 5 l 0 395 l 0 419 q 56 647 0 612 q 195 684 104 684 m 93 498 q 117 121 106 161 q 172 75 136 75 l 405 75 q 479 228 479 75 l 479 270 q 410 395 479 395 l 330 387 q 252 452 267 387 q 321 493 273 493 l 358 493 l 447 489 q 470 530 470 489 q 447 605 464 601 l 428 605 l 210 614 q 93 498 93 614 m 284 302 l 293 302 q 354 242 354 302 q 298 191 354 195 l 247 191 q 223 247 223 210 q 284 302 223 290 z "},"7":{"ha":572,"x_min":0,"x_max":562,"o":"m 348 696 q 553 648 553 696 l 562 529 q 467 62 562 391 q 376 5 467 5 l 300 0 l 267 0 q 115 43 115 0 l 115 57 q 186 395 115 168 l 124 395 q 14 448 14 395 q 0 538 2 463 l 0 557 q 62 677 0 677 q 348 696 218 696 m 96 515 q 138 467 96 467 l 262 467 q 291 452 291 464 q 210 90 273 341 l 214 76 l 243 71 l 300 71 l 357 76 l 362 71 q 433 334 385 97 q 472 515 472 437 l 472 538 q 457 614 472 584 l 243 619 l 200 619 q 100 576 100 619 l 96 515 z "},"8":{"ha":622,"x_min":0,"x_max":609,"o":"m 200 704 l 428 690 l 475 699 q 581 595 530 699 q 595 509 595 544 l 595 485 q 557 366 595 419 q 609 229 609 311 l 609 191 q 499 9 586 9 l 494 9 l 224 0 q 0 195 0 0 l 0 224 q 57 366 0 313 q 14 475 14 412 l 14 518 q 176 704 33 704 l 200 704 m 100 490 q 181 418 100 418 q 233 361 220 418 q 119 309 233 313 q 90 224 90 271 q 238 66 90 66 l 452 85 l 466 81 q 523 219 523 147 q 423 319 523 319 q 380 342 399 319 l 380 404 l 390 414 l 414 409 q 504 490 504 409 q 352 633 504 633 l 300 633 q 104 518 104 633 l 100 490 m 300 518 q 371 485 340 518 l 371 437 q 314 409 354 409 l 295 409 q 238 466 238 409 q 300 518 238 510 m 262 323 l 323 323 q 371 295 352 323 l 371 243 q 319 214 356 214 l 271 214 q 243 267 257 214 q 262 323 249 323 z "},"9":{"ha":582,"x_min":0,"x_max":592,"o":"m 186 692 q 401 683 318 692 l 439 688 l 463 688 q 583 511 583 646 l 592 353 q 535 43 592 43 q 477 0 535 35 l 72 0 q 14 138 14 34 q 52 253 14 253 q 0 468 0 326 l 0 477 q 110 683 0 653 l 186 692 m 91 410 q 176 291 91 291 q 325 262 325 291 l 325 243 q 258 186 325 193 l 143 196 l 115 191 l 115 129 q 134 77 115 77 l 358 62 q 482 162 482 62 l 487 201 l 477 358 l 482 444 l 482 458 q 425 616 482 616 l 372 611 l 224 625 q 105 525 134 625 l 91 410 m 296 501 q 358 468 338 501 l 358 420 q 296 387 338 387 l 258 387 q 229 435 229 406 l 229 444 q 296 501 229 493 z "}," ":{"ha":386,"x_min":0,"x_max":0,"o":""},"!":{"ha":386,"x_min":20,"x_max":369,"o":"m 183 679 l 206 679 q 364 651 364 674 l 364 646 l 369 591 l 341 279 q 360 158 360 224 l 360 149 q 323 23 360 23 q 169 0 218 0 l 136 0 q 25 79 52 0 l 25 153 q 53 270 25 208 q 20 553 20 445 l 20 563 q 53 665 20 665 q 183 679 92 679 m 109 604 l 109 600 q 160 246 109 375 q 113 149 113 229 q 165 75 113 75 l 211 75 q 267 107 267 75 l 271 144 l 271 158 q 239 256 271 217 l 239 260 q 281 581 281 404 l 281 600 q 230 618 276 618 l 109 604 z "},"\"":{"ha":493,"x_min":0,"x_max":0,"o":""},"#":{"ha":772,"x_min":0,"x_max":0,"o":""},"$":{"ha":772,"x_min":0,"x_max":0,"o":""},"%":{"ha":1235,"x_min":0,"x_max":0,"o":""},"&":{"ha":926,"x_min":0,"x_max":0,"o":""},"'":{"ha":265,"x_min":0,"x_max":0,"o":""},"(":{"ha":258,"x_min":14,"x_max":254,"o":"m 169 682 l 202 682 l 254 626 l 254 593 q 193 518 254 571 q 174 349 178 463 q 220 141 174 166 q 254 94 254 120 l 254 75 q 169 0 254 18 q 23 174 64 0 l 14 349 l 14 372 q 108 664 14 624 q 169 682 144 682 z "},")":{"ha":229,"x_min":0,"x_max":234,"o":"m 89 679 l 103 679 q 234 389 234 679 l 234 281 q 94 0 234 24 q 0 84 0 14 l 0 89 q 61 168 0 114 q 79 318 79 223 l 79 365 q 33 543 79 519 q 0 594 0 568 l 0 608 q 89 679 0 663 z "},"*":{"ha":541,"x_min":0,"x_max":0,"o":""},"+":{"ha":811,"x_min":0,"x_max":0,"o":""},",":{"ha":204,"x_min":27,"x_max":182,"o":"m 109 151 q 171 121 171 146 q 182 69 179 121 q 122 -34 182 -9 l 98 -34 q 65 4 77 -34 q 27 61 31 4 l 27 75 q 90 151 27 134 l 109 151 m 81 77 l 81 69 q 111 39 81 39 l 114 39 q 127 72 127 39 l 127 83 q 100 107 127 107 q 81 77 85 107 z "},"-":{"ha":463,"x_min":0,"x_max":0,"o":""},".":{"ha":154,"x_min":0,"x_max":155,"o":"m 79 149 l 81 149 q 155 76 155 149 q 109 3 155 3 l 73 0 q 5 33 5 5 l 0 65 l 0 71 q 79 149 8 149 m 54 68 l 54 62 q 65 41 58 42 l 79 41 q 103 76 103 41 q 81 106 103 106 q 54 68 54 106 z "},"/":{"ha":386,"x_min":0,"x_max":0,"o":""},":":{"ha":386,"x_min":0,"x_max":0,"o":""},";":{"ha":386,"x_min":0,"x_max":0,"o":""},"<":{"ha":811,"x_min":0,"x_max":0,"o":""},"=":{"ha":811,"x_min":0,"x_max":0,"o":""},">":{"ha":811,"x_min":0,"x_max":0,"o":""},"?":{"ha":567,"x_min":0,"x_max":543,"o":"m 359 680 q 538 533 511 680 l 543 490 l 543 448 q 425 245 543 303 l 420 245 l 425 174 l 425 137 q 378 0 415 0 l 151 0 q 109 94 109 29 l 123 245 l 118 363 l 38 363 q 0 495 9 363 l 0 509 q 47 665 0 633 l 359 680 m 90 509 l 90 500 q 109 439 90 439 l 227 463 q 288 439 288 454 l 288 410 q 212 345 288 375 l 208 326 l 208 307 l 227 241 q 203 161 208 241 l 208 71 l 231 66 l 264 66 q 330 94 330 66 l 330 142 q 307 269 330 206 q 434 359 338 300 q 458 463 458 415 l 458 467 q 354 608 440 608 l 321 613 q 104 585 104 598 q 90 509 90 554 z "},"@":{"ha":1410,"x_min":0,"x_max":0,"o":""},"A":{"ha":682,"x_min":0,"x_max":675,"o":"m 408 694 l 417 694 q 558 586 530 694 l 670 145 l 675 84 l 675 42 q 507 0 652 0 l 342 14 l 178 0 q 0 42 0 0 l 0 89 q 136 614 0 201 l 174 675 l 408 694 m 277 610 l 243 610 q 89 84 183 470 q 159 71 105 75 l 272 80 l 272 225 q 291 300 275 300 l 385 300 q 403 235 403 300 l 403 80 l 488 71 l 581 84 q 422 614 466 614 l 389 618 l 277 610 m 300 492 l 351 492 q 399 473 399 486 l 399 431 q 366 375 399 394 l 342 385 l 309 380 q 272 412 272 395 q 300 492 272 480 z "},"B":{"ha":597,"x_min":0,"x_max":582,"o":"m 93 689 q 512 656 512 689 q 572 522 572 632 l 577 494 q 535 349 577 406 q 582 200 582 273 q 442 9 582 50 l 289 0 q 14 47 14 0 l 5 130 l 5 168 l 0 559 q 79 684 12 684 l 93 689 m 88 484 l 93 377 l 84 177 q 140 79 84 79 q 260 70 168 70 l 265 70 q 465 125 465 70 q 489 205 489 155 q 429 326 489 275 l 414 359 q 484 503 484 394 q 349 614 484 614 l 279 619 q 98 582 98 619 l 88 484 m 289 507 l 298 507 q 354 442 354 507 q 307 396 346 396 l 247 396 q 224 452 224 415 q 289 507 224 499 m 275 298 l 302 298 q 349 260 349 298 l 354 233 q 307 191 345 191 l 275 191 q 224 237 224 191 q 275 298 232 298 z "},"C":{"ha":587,"x_min":0,"x_max":558,"o":"m 174 689 l 272 689 l 300 684 q 454 694 347 694 q 558 539 558 694 q 492 370 547 370 l 469 370 q 347 389 421 370 l 347 309 q 488 333 431 333 q 558 169 547 333 l 558 140 q 412 5 558 5 l 314 0 l 258 0 q 56 33 96 0 q 0 211 0 86 l 5 328 l 0 534 q 174 689 0 689 m 94 488 l 98 342 l 94 169 q 248 75 94 75 l 277 75 q 459 127 459 75 l 459 197 l 450 253 q 347 230 383 230 l 319 230 q 258 248 258 233 l 258 459 l 267 469 l 328 469 q 450 450 379 469 l 450 454 q 464 539 464 505 q 417 618 464 618 l 230 618 l 201 623 q 94 488 94 623 z "},"D":{"ha":637,"x_min":0,"x_max":623,"o":"m 414 699 q 618 499 618 699 l 623 333 q 585 62 623 108 q 399 0 519 0 l 357 0 q 33 28 33 13 q 0 262 0 87 l 0 309 l 5 333 l 0 361 l 0 499 q 76 690 0 690 l 414 699 m 109 604 q 95 499 95 549 l 100 352 l 95 195 q 128 81 95 81 l 195 76 l 442 76 q 518 142 481 76 q 533 286 533 208 l 533 300 q 447 623 533 623 l 395 628 l 357 628 q 109 604 235 628 m 314 485 q 371 461 371 477 l 371 233 q 333 214 371 220 l 290 214 q 248 233 273 214 l 252 257 l 248 371 l 248 409 q 314 485 254 485 z "},"E":{"ha":572,"x_min":0,"x_max":557,"o":"m 75 684 l 363 689 q 533 656 533 689 l 538 585 l 538 519 l 528 463 q 547 359 545 463 q 528 269 547 310 q 557 146 557 217 q 467 5 557 5 l 279 0 l 269 0 q 43 19 43 0 q 0 174 0 64 l 0 193 l 5 345 l 0 496 l 0 515 q 71 684 8 684 l 75 684 m 85 330 q 123 80 96 80 q 227 71 163 71 l 283 71 l 448 75 q 463 142 463 106 l 463 161 q 448 227 463 190 l 420 227 l 415 231 l 410 227 l 330 227 q 250 279 250 227 l 250 288 q 269 330 250 324 l 453 330 l 458 392 l 453 406 l 321 401 q 250 458 250 412 l 250 481 q 363 510 260 505 l 373 510 l 415 505 q 448 543 448 505 l 453 566 q 425 614 453 614 l 326 618 l 222 618 q 104 585 104 618 l 85 330 z "},"F":{"ha":557,"x_min":0,"x_max":562,"o":"m 58 696 l 298 701 l 341 701 q 538 682 538 701 l 553 610 l 553 543 l 543 471 q 562 385 562 437 q 519 274 562 274 l 481 269 l 351 269 l 346 231 l 351 134 q 302 19 351 19 q 149 0 203 0 l 106 0 q 0 159 0 0 l 9 375 l 5 528 q 58 696 5 657 m 120 625 q 96 437 96 541 l 96 351 q 125 87 96 87 q 192 72 157 72 l 207 72 q 264 130 264 75 l 255 274 q 288 341 260 341 l 418 336 l 461 341 l 466 380 l 461 418 l 332 413 l 327 413 q 260 466 260 421 l 260 490 q 317 519 277 519 l 447 519 l 456 528 l 456 620 l 447 629 l 274 634 l 120 625 z "},"G":{"ha":577,"x_min":0,"x_max":570,"o":"m 211 704 l 220 704 q 527 671 527 689 q 551 527 551 608 q 536 426 546 426 q 570 239 570 359 l 570 163 q 479 5 570 5 l 431 0 q 72 38 118 0 q 5 292 5 74 l 0 493 q 81 685 0 637 q 211 704 146 704 m 91 493 l 91 479 l 100 220 l 96 149 q 273 72 96 85 q 465 96 465 76 q 479 230 479 157 l 474 297 l 469 297 q 383 244 469 244 q 268 307 268 244 l 263 369 l 263 397 q 288 493 263 493 l 340 493 q 455 469 378 493 l 455 522 l 460 541 q 421 618 460 618 l 249 637 q 110 574 110 626 q 91 493 96 574 m 393 369 l 393 355 q 469 326 440 355 l 469 335 q 426 369 469 369 l 393 369 z "},"H":{"ha":612,"x_min":0,"x_max":608,"o":"m 209 689 l 228 689 l 471 684 l 551 689 q 604 566 604 639 l 608 176 q 551 14 591 14 q 399 0 477 0 q 309 19 349 0 q 190 0 281 5 q 28 38 28 0 q 0 176 0 87 l 0 199 l 5 337 l 0 480 l 0 499 q 66 680 0 680 q 209 689 123 689 m 90 480 l 90 233 q 161 66 90 66 l 176 66 l 237 76 l 237 204 q 266 275 242 275 l 328 275 q 366 256 363 270 l 366 100 l 371 76 l 433 71 q 504 104 504 71 l 513 204 l 509 337 l 513 518 q 471 618 513 618 l 376 618 l 366 608 l 366 494 q 332 428 366 428 l 299 423 q 237 494 237 423 l 237 613 l 157 623 q 95 561 95 623 l 90 480 z "},"I":{"ha":328,"x_min":0,"x_max":332,"o":"m 61 679 l 271 679 q 332 496 332 642 l 328 421 l 332 121 q 211 0 332 0 l 56 9 q 0 201 3 33 l 5 295 l 0 529 q 61 679 0 641 m 94 510 l 98 281 l 94 201 q 131 75 94 75 l 173 71 q 229 108 229 71 l 239 178 l 234 304 l 239 506 q 197 608 239 608 l 150 613 q 98 557 98 613 l 94 510 z "},"J":{"ha":572,"x_min":0,"x_max":560,"o":"m 364 699 l 374 699 q 551 637 551 699 q 560 551 560 613 l 560 177 q 364 0 560 0 l 288 0 q 24 33 117 0 q 0 191 0 99 l 0 201 q 86 359 0 359 l 96 359 l 206 335 l 206 340 l 211 416 l 206 589 l 206 646 q 364 699 240 699 m 292 555 l 292 546 l 302 355 l 302 326 q 249 249 302 249 l 216 249 q 105 278 176 249 q 91 177 91 228 l 91 130 q 182 67 91 67 l 263 67 q 450 125 450 67 q 474 244 463 125 l 469 278 l 469 378 l 474 517 q 441 618 474 618 q 364 627 420 627 l 335 627 q 292 555 292 627 z "},"K":{"ha":617,"x_min":0,"x_max":607,"o":"m 53 689 l 410 694 q 597 650 597 680 l 602 602 l 602 597 q 545 357 602 534 l 545 342 l 602 135 l 607 101 q 559 0 607 34 l 202 0 q 19 43 19 0 q 0 193 0 111 l 5 352 l 0 515 l 0 520 q 53 689 0 652 m 92 496 l 92 188 q 135 73 92 73 l 183 67 l 227 73 l 227 193 q 275 275 227 275 l 313 275 q 357 222 357 275 l 357 82 q 448 67 357 67 q 511 92 511 67 l 458 294 l 419 294 q 366 337 366 297 q 405 390 366 390 l 444 390 q 496 535 475 440 q 506 597 506 557 l 506 612 l 448 621 l 361 621 l 357 597 l 357 477 q 337 414 353 414 l 318 419 l 279 414 q 227 438 227 422 l 227 612 l 217 621 l 154 621 q 106 607 106 621 q 92 496 92 563 z "},"L":{"ha":562,"x_min":0,"x_max":557,"o":"m 142 671 q 329 649 329 671 q 357 530 357 599 l 352 320 l 357 320 q 471 342 431 342 q 549 242 549 342 l 557 146 q 503 9 557 52 l 462 14 l 224 0 l 192 0 q 0 201 0 0 l 18 530 l 18 544 l 9 626 q 142 671 48 671 m 114 599 l 105 581 l 105 553 l 87 242 q 210 68 87 68 l 256 68 q 452 87 352 68 q 466 183 466 138 q 448 265 462 265 q 324 233 354 233 q 265 279 265 233 l 260 329 l 260 534 q 237 599 260 599 l 201 603 l 114 599 z "},"M":{"ha":850,"x_min":0,"x_max":861,"o":"m 319 699 q 428 666 402 699 q 543 699 473 699 l 552 699 q 704 656 704 699 q 813 290 747 565 q 861 85 861 175 l 861 43 l 851 5 l 614 0 l 233 0 l 9 5 l 0 33 l 0 71 q 133 614 0 173 q 191 690 168 690 l 319 699 m 95 71 l 147 66 l 248 71 q 309 267 284 267 l 328 267 l 371 271 q 409 243 389 271 l 380 71 l 385 71 l 418 66 l 485 71 q 456 214 456 180 l 456 248 q 518 271 464 271 q 581 210 581 271 l 614 71 l 699 66 l 766 76 q 628 585 766 155 l 604 623 l 523 623 q 471 471 506 623 l 456 461 l 437 461 q 361 600 361 461 q 314 623 336 623 l 281 623 q 224 571 224 623 q 95 71 99 162 z "},"N":{"ha":597,"x_min":0,"x_max":595,"o":"m 109 694 l 260 680 l 274 680 l 486 694 l 496 694 q 571 637 571 690 q 595 524 595 593 l 590 392 l 595 113 q 538 9 576 9 l 410 0 q 330 19 367 0 q 198 0 292 0 l 179 0 q 19 43 19 0 q 0 311 0 159 l 0 340 q 38 675 0 675 q 109 694 62 689 m 85 505 l 85 477 l 99 174 l 94 132 q 127 75 94 75 l 189 71 l 245 71 l 198 198 l 189 260 q 250 279 226 279 q 373 109 332 279 q 439 71 388 71 l 486 75 q 500 156 500 119 l 500 467 l 505 486 q 463 618 505 618 l 439 623 l 354 618 q 406 477 406 521 q 387 425 400 425 l 354 425 q 231 595 261 425 q 165 628 208 628 q 85 505 85 628 z "},"O":{"ha":612,"x_min":0,"x_max":602,"o":"m 296 690 l 315 690 q 542 644 509 690 q 602 357 602 543 l 602 311 q 519 23 602 91 q 422 0 485 5 l 218 5 l 199 5 q 33 69 68 5 q 0 394 0 183 l 0 440 q 79 658 0 621 q 296 690 138 690 m 93 450 q 130 97 93 97 q 306 65 130 65 q 481 111 481 65 q 505 232 500 119 l 505 481 q 440 602 505 587 q 292 616 359 616 l 255 616 q 97 509 97 616 l 93 450 m 255 477 l 319 477 q 357 458 354 471 l 357 417 l 361 306 q 338 208 355 208 l 264 208 q 236 319 241 218 q 255 477 236 477 z "},"P":{"ha":567,"x_min":0,"x_max":567,"o":"m 333 689 l 338 689 q 567 591 531 689 l 562 553 l 567 398 l 567 366 q 431 220 567 220 l 366 225 l 361 211 q 309 14 361 14 q 201 0 267 0 l 192 0 q 37 28 37 0 q 0 174 0 63 l 5 338 l 0 511 q 56 670 0 670 q 333 689 231 689 m 113 605 l 108 610 q 89 497 89 555 l 89 417 l 94 342 l 89 267 l 89 192 q 140 71 89 71 l 206 71 q 262 103 262 71 l 267 145 l 267 235 q 286 291 267 291 l 403 291 q 488 436 475 291 l 488 497 q 394 614 488 614 l 361 618 l 113 605 m 281 497 l 309 497 q 347 478 345 491 l 347 408 q 314 389 339 389 l 248 389 q 225 441 232 389 q 281 497 236 497 z "},"Q":{"ha":607,"x_min":0,"x_max":602,"o":"m 282 697 l 339 697 q 560 627 536 697 q 593 523 593 591 q 602 382 602 523 l 602 283 q 527 29 602 73 q 466 5 527 20 l 466 -3 q 485 -79 485 -38 l 485 -112 q 292 -131 485 -131 l 245 -131 q 109 -107 109 -126 l 109 -88 q 132 1 109 -47 q 9 123 52 1 l 0 264 l 0 490 q 165 692 0 692 l 282 697 m 80 368 l 80 330 q 151 85 80 85 q 330 62 247 62 q 471 104 471 68 q 513 321 513 172 l 513 359 q 405 622 513 622 l 348 627 l 330 627 q 94 547 94 627 q 80 368 80 460 m 292 481 l 301 481 q 353 457 351 481 l 357 255 q 339 212 353 212 l 287 212 q 235 231 264 212 l 240 250 l 235 406 q 292 481 245 481 m 231 5 l 207 -60 l 386 -60 q 362 5 369 5 l 277 1 l 231 5 z "},"R":{"ha":592,"x_min":0,"x_max":592,"o":"m 56 682 l 132 677 l 390 686 q 587 498 587 686 q 555 357 579 357 q 592 188 592 292 l 592 183 q 536 5 592 48 l 470 5 l 362 0 q 292 24 321 0 q 174 0 249 0 q 19 61 19 0 q 0 197 5 66 l 5 353 l 0 512 l 0 517 q 56 682 0 646 m 254 621 l 117 616 q 90 484 90 579 l 90 207 q 127 71 90 71 l 160 66 q 226 108 226 66 l 231 141 l 226 183 l 226 235 q 268 277 226 277 l 305 277 q 348 254 348 268 l 348 136 q 390 71 348 71 l 428 71 q 494 99 494 71 l 503 188 q 441 353 503 294 q 498 479 498 408 l 498 494 q 287 625 498 625 l 254 621 m 249 507 l 310 507 q 348 489 345 502 l 348 428 q 300 399 332 399 q 226 414 226 399 l 226 456 q 249 507 233 507 z "},"S":{"ha":562,"x_min":0,"x_max":572,"o":"m 211 690 l 507 675 l 511 680 q 553 605 553 639 l 558 502 l 553 404 l 535 389 q 572 258 572 325 l 572 225 q 436 0 572 29 l 201 0 q 24 28 24 0 q 9 108 9 72 l 9 174 l 14 235 l 9 281 l 37 296 q 0 441 0 356 l 0 455 q 150 685 21 685 l 211 690 m 85 431 l 85 422 q 159 323 85 323 q 296 220 296 298 q 225 193 267 197 l 103 220 l 94 141 l 103 80 l 108 80 l 342 61 q 488 254 488 61 l 488 262 q 380 366 488 366 q 267 436 267 389 q 258 465 258 436 q 338 492 290 492 q 469 460 370 492 l 469 465 l 474 530 l 474 535 q 446 614 474 596 l 239 614 q 98 530 121 614 q 85 431 85 481 z "},"T":{"ha":592,"x_min":0,"x_max":592,"o":"m 149 681 l 163 681 l 475 685 q 592 550 592 685 q 550 378 578 378 q 499 368 532 368 l 462 368 l 462 289 l 466 182 q 433 23 466 23 q 321 0 391 0 q 144 37 144 0 q 117 163 117 98 l 121 340 l 121 368 l 98 368 q 9 425 9 368 l 0 517 l 0 541 q 89 676 0 676 l 149 681 m 89 559 l 89 532 q 102 443 90 458 l 172 457 q 210 433 210 444 l 210 425 l 205 186 q 247 75 205 75 l 289 70 l 303 70 q 368 98 368 70 l 378 163 l 373 378 q 391 457 379 457 l 415 457 l 490 443 l 490 448 l 503 522 q 475 602 498 602 l 201 620 l 168 620 q 89 559 89 620 z "},"U":{"ha":572,"x_min":0,"x_max":562,"o":"m 28 673 l 346 677 q 553 650 553 677 q 562 498 562 595 l 562 226 q 507 37 562 84 q 267 0 468 0 q 60 37 97 0 q 0 272 0 105 l 0 286 l 18 668 l 23 673 l 28 673 m 346 608 l 346 438 l 350 318 q 281 231 341 231 q 226 300 226 231 l 221 350 l 221 585 l 216 608 l 97 608 l 101 530 l 83 226 q 161 87 83 107 q 318 64 243 64 q 461 124 437 64 q 479 244 479 178 l 479 262 l 465 585 l 465 608 l 410 613 l 346 608 z "},"V":{"ha":667,"x_min":0,"x_max":667,"o":"m 178 695 l 197 695 q 331 681 292 695 q 470 695 385 695 l 489 695 q 662 648 662 695 l 667 590 l 667 581 q 571 96 667 500 q 518 14 541 14 q 384 0 478 0 l 370 0 q 134 24 134 0 q 58 283 94 83 q 0 576 0 507 l 0 581 q 77 690 0 690 l 178 695 m 86 600 q 230 77 193 77 l 317 72 l 370 72 q 470 106 470 72 q 566 576 566 485 l 566 609 q 504 623 566 623 l 484 623 l 403 618 l 398 537 l 403 350 q 389 220 398 254 l 364 225 l 307 225 q 273 240 291 225 l 259 618 l 130 623 l 125 623 q 86 600 98 623 z "},"W":{"ha":858,"x_min":0,"x_max":848,"o":"m 197 699 l 453 694 l 487 699 l 549 685 l 555 685 l 738 704 l 743 704 q 848 651 825 704 q 718 19 848 497 q 574 0 637 0 l 526 0 q 429 34 468 0 l 425 34 q 275 0 425 0 q 140 29 140 0 q 43 381 94 94 q 0 598 0 501 l 0 608 q 29 685 0 685 l 197 699 m 101 622 q 217 82 101 491 l 265 73 q 347 96 347 73 q 405 241 366 211 l 434 260 q 458 236 434 236 q 496 125 479 236 q 549 73 511 73 q 631 82 631 76 q 747 578 670 160 l 747 622 l 723 627 l 675 627 q 608 598 608 627 q 521 429 583 429 l 507 429 q 448 477 448 429 q 482 622 448 504 l 458 627 l 391 627 l 366 622 l 395 496 l 395 444 q 361 425 387 425 l 347 425 q 241 578 259 425 l 231 622 l 159 627 l 135 627 l 101 622 z "},"X":{"ha":671,"x_min":0,"x_max":675,"o":"m 164 699 l 222 699 q 338 685 281 699 q 530 704 458 704 l 540 704 q 665 627 646 704 l 665 583 q 593 357 665 499 q 675 77 675 189 l 675 29 q 477 0 675 3 q 342 14 411 0 q 174 0 264 0 l 135 0 q 0 39 0 9 l 0 53 q 77 352 0 166 q 14 608 14 488 q 87 690 14 690 q 164 699 108 699 m 111 603 q 155 405 111 549 l 178 405 q 246 381 246 401 l 246 347 q 169 304 246 304 l 159 304 q 96 77 96 104 l 155 73 l 270 77 l 275 82 l 275 203 q 294 279 278 279 l 361 279 q 405 251 388 279 l 405 87 q 507 73 405 73 q 583 82 562 73 q 516 309 555 201 l 507 309 q 429 338 429 312 l 429 361 q 496 400 429 400 q 535 463 535 405 q 564 617 564 553 l 559 617 l 521 627 l 453 627 q 400 612 400 627 l 400 516 l 405 487 q 386 434 398 434 l 290 434 q 270 496 273 434 l 270 622 l 222 627 l 188 627 q 111 603 111 627 z "},"Y":{"ha":707,"x_min":0,"x_max":708,"o":"m 156 689 l 165 689 q 345 675 258 689 q 524 689 448 689 l 547 689 q 708 646 664 689 q 585 255 702 529 l 528 231 l 528 227 l 533 94 q 434 0 533 17 l 397 0 q 193 43 220 0 q 179 109 179 79 l 179 231 q 123 250 179 241 q 14 557 109 258 l 0 651 q 156 689 49 689 m 94 609 l 198 311 q 274 212 274 311 l 274 193 l 269 161 q 307 75 269 75 l 378 75 q 439 118 439 75 l 444 165 l 439 269 q 515 316 439 300 q 609 609 585 515 q 533 618 583 618 l 420 614 l 415 566 l 415 420 q 330 401 415 401 q 288 486 288 401 l 292 590 q 193 618 292 618 l 161 618 l 94 609 z "},"Z":{"ha":582,"x_min":0,"x_max":582,"o":"m 277 703 l 320 703 q 553 679 553 703 q 582 562 582 631 q 538 393 582 393 l 499 349 q 572 320 572 349 l 582 199 l 582 165 q 494 9 582 9 l 345 9 l 126 0 q 0 146 0 0 l 0 170 q 92 368 0 304 q 14 519 14 368 l 14 548 q 97 699 14 699 l 277 703 m 126 631 q 106 524 106 576 l 117 446 q 233 465 189 465 q 277 446 277 465 q 126 257 268 409 q 97 165 97 210 l 97 155 q 140 83 97 83 l 257 73 l 262 73 q 480 102 480 73 l 490 189 l 490 233 q 480 267 490 267 l 368 248 l 354 248 q 311 271 330 248 l 311 281 q 490 524 490 467 l 490 548 q 427 635 490 635 l 248 635 l 126 631 z "},"[":{"ha":386,"x_min":0,"x_max":0,"o":""},"\\":{"ha":386,"x_min":0,"x_max":0,"o":""},"]":{"ha":386,"x_min":0,"x_max":0,"o":""},"^":{"ha":652,"x_min":0,"x_max":0,"o":""},"_":{"ha":772,"x_min":0,"x_max":0,"o":""},"`":{"ha":463,"x_min":0,"x_max":0,"o":""},"a":{"ha":682,"x_min":0,"x_max":675,"o":"m 408 694 l 417 694 q 558 586 530 694 l 670 145 l 675 84 l 675 42 q 507 0 652 0 l 342 14 l 178 0 q 0 42 0 0 l 0 89 q 136 614 0 201 l 174 675 l 408 694 m 277 610 l 243 610 q 89 84 183 470 q 159 71 105 75 l 272 80 l 272 225 q 291 300 275 300 l 385 300 q 403 235 403 300 l 403 80 l 488 71 l 581 84 q 422 614 466 614 l 389 618 l 277 610 m 300 492 l 351 492 q 399 473 399 486 l 399 431 q 366 375 399 394 l 342 385 l 309 380 q 272 412 272 395 q 300 492 272 480 z "},"b":{"ha":597,"x_min":0,"x_max":582,"o":"m 93 689 q 512 656 512 689 q 572 522 572 632 l 577 494 q 535 349 577 406 q 582 200 582 273 q 442 9 582 50 l 289 0 q 14 47 14 0 l 5 130 l 5 168 l 0 559 q 79 684 12 684 l 93 689 m 88 484 l 93 377 l 84 177 q 140 79 84 79 q 260 70 168 70 l 265 70 q 465 125 465 70 q 489 205 489 155 q 429 326 489 275 l 414 359 q 484 503 484 394 q 349 614 484 614 l 279 619 q 98 582 98 619 l 88 484 m 289 507 l 298 507 q 354 442 354 507 q 307 396 346 396 l 247 396 q 224 452 224 415 q 289 507 224 499 m 275 298 l 302 298 q 349 260 349 298 l 354 233 q 307 191 345 191 l 275 191 q 224 237 224 191 q 275 298 232 298 z "},"c":{"ha":587,"x_min":0,"x_max":558,"o":"m 174 689 l 272 689 l 300 684 q 454 694 347 694 q 558 539 558 694 q 492 370 547 370 l 469 370 q 347 389 421 370 l 347 309 q 488 333 431 333 q 558 169 547 333 l 558 140 q 412 5 558 5 l 314 0 l 258 0 q 56 33 96 0 q 0 211 0 86 l 5 328 l 0 534 q 174 689 0 689 m 94 488 l 98 342 l 94 169 q 248 75 94 75 l 277 75 q 459 127 459 75 l 459 197 l 450 253 q 347 230 383 230 l 319 230 q 258 248 258 233 l 258 459 l 267 469 l 328 469 q 450 450 379 469 l 450 454 q 464 539 464 505 q 417 618 464 618 l 230 618 l 201 623 q 94 488 94 623 z "},"d":{"ha":637,"x_min":0,"x_max":623,"o":"m 414 699 q 618 499 618 699 l 623 333 q 585 62 623 108 q 399 0 519 0 l 357 0 q 33 28 33 13 q 0 262 0 87 l 0 309 l 5 333 l 0 361 l 0 499 q 76 690 0 690 l 414 699 m 109 604 q 95 499 95 549 l 100 352 l 95 195 q 128 81 95 81 l 195 76 l 442 76 q 518 142 481 76 q 533 286 533 208 l 533 300 q 447 623 533 623 l 395 628 l 357 628 q 109 604 235 628 m 314 485 q 371 461 371 477 l 371 233 q 333 214 371 220 l 290 214 q 248 233 273 214 l 252 257 l 248 371 l 248 409 q 314 485 254 485 z "},"e":{"ha":572,"x_min":0,"x_max":557,"o":"m 75 684 l 363 689 q 533 656 533 689 l 538 585 l 538 519 l 528 463 q 547 359 545 463 q 528 269 547 310 q 557 146 557 217 q 467 5 557 5 l 279 0 l 269 0 q 43 19 43 0 q 0 174 0 64 l 0 193 l 5 345 l 0 496 l 0 515 q 71 684 8 684 l 75 684 m 85 330 q 123 80 96 80 q 227 71 163 71 l 283 71 l 448 75 q 463 142 463 106 l 463 161 q 448 227 463 190 l 420 227 l 415 231 l 410 227 l 330 227 q 250 279 250 227 l 250 288 q 269 330 250 324 l 453 330 l 458 392 l 453 406 l 321 401 q 250 458 250 412 l 250 481 q 363 510 260 505 l 373 510 l 415 505 q 448 543 448 505 l 453 566 q 425 614 453 614 l 326 618 l 222 618 q 104 585 104 618 l 85 330 z "},"f":{"ha":557,"x_min":0,"x_max":562,"o":"m 58 696 l 298 701 l 341 701 q 538 682 538 701 l 553 610 l 553 543 l 543 471 q 562 385 562 437 q 519 274 562 274 l 481 269 l 351 269 l 346 231 l 351 134 q 302 19 351 19 q 149 0 203 0 l 106 0 q 0 159 0 0 l 9 375 l 5 528 q 58 696 5 657 m 120 625 q 96 437 96 541 l 96 351 q 125 87 96 87 q 192 72 157 72 l 207 72 q 264 130 264 75 l 255 274 q 288 341 260 341 l 418 336 l 461 341 l 466 380 l 461 418 l 332 413 l 327 413 q 260 466 260 421 l 260 490 q 317 519 277 519 l 447 519 l 456 528 l 456 620 l 447 629 l 274 634 l 120 625 z "},"g":{"ha":577,"x_min":0,"x_max":570,"o":"m 211 704 l 220 704 q 527 671 527 689 q 551 527 551 608 q 536 426 546 426 q 570 239 570 359 l 570 163 q 479 5 570 5 l 431 0 q 72 38 118 0 q 5 292 5 74 l 0 493 q 81 685 0 637 q 211 704 146 704 m 91 493 l 91 479 l 100 220 l 96 149 q 273 72 96 85 q 465 96 465 76 q 479 230 479 157 l 474 297 l 469 297 q 383 244 469 244 q 268 307 268 244 l 263 369 l 263 397 q 288 493 263 493 l 340 493 q 455 469 378 493 l 455 522 l 460 541 q 421 618 460 618 l 249 637 q 110 574 110 626 q 91 493 96 574 m 393 369 l 393 355 q 469 326 440 355 l 469 335 q 426 369 469 369 l 393 369 z "},"h":{"ha":612,"x_min":0,"x_max":608,"o":"m 209 689 l 228 689 l 471 684 l 551 689 q 604 566 604 639 l 608 176 q 551 14 591 14 q 399 0 477 0 q 309 19 349 0 q 190 0 281 5 q 28 38 28 0 q 0 176 0 87 l 0 199 l 5 337 l 0 480 l 0 499 q 66 680 0 680 q 209 689 123 689 m 90 480 l 90 233 q 161 66 90 66 l 176 66 l 237 76 l 237 204 q 266 275 242 275 l 328 275 q 366 256 363 270 l 366 100 l 371 76 l 433 71 q 504 104 504 71 l 513 204 l 509 337 l 513 518 q 471 618 513 618 l 376 618 l 366 608 l 366 494 q 332 428 366 428 l 299 423 q 237 494 237 423 l 237 613 l 157 623 q 95 561 95 623 l 90 480 z "},"i":{"ha":328,"x_min":0,"x_max":332,"o":"m 61 679 l 271 679 q 332 496 332 642 l 328 421 l 332 121 q 211 0 332 0 l 56 9 q 0 201 3 33 l 5 295 l 0 529 q 61 679 0 641 m 94 510 l 98 281 l 94 201 q 131 75 94 75 l 173 71 q 229 108 229 71 l 239 178 l 234 304 l 239 506 q 197 608 239 608 l 150 613 q 98 557 98 613 l 94 510 z "},"j":{"ha":572,"x_min":0,"x_max":560,"o":"m 364 699 l 374 699 q 551 637 551 699 q 560 551 560 613 l 560 177 q 364 0 560 0 l 288 0 q 24 33 117 0 q 0 191 0 99 l 0 201 q 86 359 0 359 l 96 359 l 206 335 l 206 340 l 211 416 l 206 589 l 206 646 q 364 699 240 699 m 292 555 l 292 546 l 302 355 l 302 326 q 249 249 302 249 l 216 249 q 105 278 176 249 q 91 177 91 228 l 91 130 q 182 67 91 67 l 263 67 q 450 125 450 67 q 474 244 463 125 l 469 278 l 469 378 l 474 517 q 441 618 474 618 q 364 627 420 627 l 335 627 q 292 555 292 627 z "},"k":{"ha":617,"x_min":0,"x_max":607,"o":"m 53 689 l 410 694 q 597 650 597 680 l 602 602 l 602 597 q 545 357 602 534 l 545 342 l 602 135 l 607 101 q 559 0 607 34 l 202 0 q 19 43 19 0 q 0 193 0 111 l 5 352 l 0 515 l 0 520 q 53 689 0 652 m 92 496 l 92 188 q 135 73 92 73 l 183 67 l 227 73 l 227 193 q 275 275 227 275 l 313 275 q 357 222 357 275 l 357 82 q 448 67 357 67 q 511 92 511 67 l 458 294 l 419 294 q 366 337 366 297 q 405 390 366 390 l 444 390 q 496 535 475 440 q 506 597 506 557 l 506 612 l 448 621 l 361 621 l 357 597 l 357 477 q 337 414 353 414 l 318 419 l 279 414 q 227 438 227 422 l 227 612 l 217 621 l 154 621 q 106 607 106 621 q 92 496 92 563 z "},"l":{"ha":562,"x_min":0,"x_max":557,"o":"m 142 671 q 329 649 329 671 q 357 530 357 599 l 352 320 l 357 320 q 471 342 431 342 q 549 242 549 342 l 557 146 q 503 9 557 52 l 462 14 l 224 0 l 192 0 q 0 201 0 0 l 18 530 l 18 544 l 9 626 q 142 671 48 671 m 114 599 l 105 581 l 105 553 l 87 242 q 210 68 87 68 l 256 68 q 452 87 352 68 q 466 183 466 138 q 448 265 462 265 q 324 233 354 233 q 265 279 265 233 l 260 329 l 260 534 q 237 599 260 599 l 201 603 l 114 599 z "},"m":{"ha":850,"x_min":0,"x_max":861,"o":"m 319 699 q 428 666 402 699 q 543 699 473 699 l 552 699 q 704 656 704 699 q 813 290 747 565 q 861 85 861 175 l 861 43 l 851 5 l 614 0 l 233 0 l 9 5 l 0 33 l 0 71 q 133 614 0 173 q 191 690 168 690 l 319 699 m 95 71 l 147 66 l 248 71 q 309 267 284 267 l 328 267 l 371 271 q 409 243 389 271 l 380 71 l 385 71 l 418 66 l 485 71 q 456 214 456 180 l 456 248 q 518 271 464 271 q 581 210 581 271 l 614 71 l 699 66 l 766 76 q 628 585 766 155 l 604 623 l 523 623 q 471 471 506 623 l 456 461 l 437 461 q 361 600 361 461 q 314 623 336 623 l 281 623 q 224 571 224 623 q 95 71 99 162 z "},"n":{"ha":597,"x_min":0,"x_max":595,"o":"m 109 694 l 260 680 l 274 680 l 486 694 l 496 694 q 571 637 571 690 q 595 524 595 593 l 590 392 l 595 113 q 538 9 576 9 l 410 0 q 330 19 367 0 q 198 0 292 0 l 179 0 q 19 43 19 0 q 0 311 0 159 l 0 340 q 38 675 0 675 q 109 694 62 689 m 85 505 l 85 477 l 99 174 l 94 132 q 127 75 94 75 l 189 71 l 245 71 l 198 198 l 189 260 q 250 279 226 279 q 373 109 332 279 q 439 71 388 71 l 486 75 q 500 156 500 119 l 500 467 l 505 486 q 463 618 505 618 l 439 623 l 354 618 q 406 477 406 521 q 387 425 400 425 l 354 425 q 231 595 261 425 q 165 628 208 628 q 85 505 85 628 z "},"o":{"ha":612,"x_min":0,"x_max":602,"o":"m 296 690 l 315 690 q 542 644 509 690 q 602 357 602 543 l 602 311 q 519 23 602 91 q 422 0 485 5 l 218 5 l 199 5 q 33 69 68 5 q 0 394 0 183 l 0 440 q 79 658 0 621 q 296 690 138 690 m 93 450 q 130 97 93 97 q 306 65 130 65 q 481 111 481 65 q 505 232 500 119 l 505 481 q 440 602 505 587 q 292 616 359 616 l 255 616 q 97 509 97 616 l 93 450 m 255 477 l 319 477 q 357 458 354 471 l 357 417 l 361 306 q 338 208 355 208 l 264 208 q 236 319 241 218 q 255 477 236 477 z "},"p":{"ha":567,"x_min":0,"x_max":567,"o":"m 333 689 l 338 689 q 567 591 531 689 l 562 553 l 567 398 l 567 366 q 431 220 567 220 l 366 225 l 361 211 q 309 14 361 14 q 201 0 267 0 l 192 0 q 37 28 37 0 q 0 174 0 63 l 5 338 l 0 511 q 56 670 0 670 q 333 689 231 689 m 113 605 l 108 610 q 89 497 89 555 l 89 417 l 94 342 l 89 267 l 89 192 q 140 71 89 71 l 206 71 q 262 103 262 71 l 267 145 l 267 235 q 286 291 267 291 l 403 291 q 488 436 475 291 l 488 497 q 394 614 488 614 l 361 618 l 113 605 m 281 497 l 309 497 q 347 478 345 491 l 347 408 q 314 389 339 389 l 248 389 q 225 441 232 389 q 281 497 236 497 z "},"q":{"ha":607,"x_min":0,"x_max":602,"o":"m 282 697 l 339 697 q 560 627 536 697 q 593 523 593 591 q 602 382 602 523 l 602 283 q 527 29 602 73 q 466 5 527 20 l 466 -3 q 485 -79 485 -38 l 485 -112 q 292 -131 485 -131 l 245 -131 q 109 -107 109 -126 l 109 -88 q 132 1 109 -47 q 9 123 52 1 l 0 264 l 0 490 q 165 692 0 692 l 282 697 m 80 368 l 80 330 q 151 85 80 85 q 330 62 247 62 q 471 104 471 68 q 513 321 513 172 l 513 359 q 405 622 513 622 l 348 627 l 330 627 q 94 547 94 627 q 80 368 80 460 m 292 481 l 301 481 q 353 457 351 481 l 357 255 q 339 212 353 212 l 287 212 q 235 231 264 212 l 240 250 l 235 406 q 292 481 245 481 m 231 5 l 207 -60 l 386 -60 q 362 5 369 5 l 277 1 l 231 5 z "},"r":{"ha":592,"x_min":0,"x_max":592,"o":"m 56 682 l 132 677 l 390 686 q 587 498 587 686 q 555 357 579 357 q 592 188 592 292 l 592 183 q 536 5 592 48 l 470 5 l 362 0 q 292 24 321 0 q 174 0 249 0 q 19 61 19 0 q 0 197 5 66 l 5 353 l 0 512 l 0 517 q 56 682 0 646 m 254 621 l 117 616 q 90 484 90 579 l 90 207 q 127 71 90 71 l 160 66 q 226 108 226 66 l 231 141 l 226 183 l 226 235 q 268 277 226 277 l 305 277 q 348 254 348 268 l 348 136 q 390 71 348 71 l 428 71 q 494 99 494 71 l 503 188 q 441 353 503 294 q 498 479 498 408 l 498 494 q 287 625 498 625 l 254 621 m 249 507 l 310 507 q 348 489 345 502 l 348 428 q 300 399 332 399 q 226 414 226 399 l 226 456 q 249 507 233 507 z "},"s":{"ha":562,"x_min":0,"x_max":572,"o":"m 211 690 l 507 675 l 511 680 q 553 605 553 639 l 558 502 l 553 404 l 535 389 q 572 258 572 325 l 572 225 q 436 0 572 29 l 201 0 q 24 28 24 0 q 9 108 9 72 l 9 174 l 14 235 l 9 281 l 37 296 q 0 441 0 356 l 0 455 q 150 685 21 685 l 211 690 m 85 431 l 85 422 q 159 323 85 323 q 296 220 296 298 q 225 193 267 197 l 103 220 l 94 141 l 103 80 l 108 80 l 342 61 q 488 254 488 61 l 488 262 q 380 366 488 366 q 267 436 267 389 q 258 465 258 436 q 338 492 290 492 q 469 460 370 492 l 469 465 l 474 530 l 474 535 q 446 614 474 596 l 239 614 q 98 530 121 614 q 85 431 85 481 z "},"t":{"ha":592,"x_min":0,"x_max":592,"o":"m 149 681 l 163 681 l 475 685 q 592 550 592 685 q 550 378 578 378 q 499 368 532 368 l 462 368 l 462 289 l 466 182 q 433 23 466 23 q 321 0 391 0 q 144 37 144 0 q 117 163 117 98 l 121 340 l 121 368 l 98 368 q 9 425 9 368 l 0 517 l 0 541 q 89 676 0 676 l 149 681 m 89 559 l 89 532 q 102 443 90 458 l 172 457 q 210 433 210 444 l 210 425 l 205 186 q 247 75 205 75 l 289 70 l 303 70 q 368 98 368 70 l 378 163 l 373 378 q 391 457 379 457 l 415 457 l 490 443 l 490 448 l 503 522 q 475 602 498 602 l 201 620 l 168 620 q 89 559 89 620 z "},"u":{"ha":572,"x_min":0,"x_max":562,"o":"m 28 673 l 346 677 q 553 650 553 677 q 562 498 562 595 l 562 226 q 507 37 562 84 q 267 0 468 0 q 60 37 97 0 q 0 272 0 105 l 0 286 l 18 668 l 23 673 l 28 673 m 346 608 l 346 438 l 350 318 q 281 231 341 231 q 226 300 226 231 l 221 350 l 221 585 l 216 608 l 97 608 l 101 530 l 83 226 q 161 87 83 107 q 318 64 243 64 q 461 124 437 64 q 479 244 479 178 l 479 262 l 465 585 l 465 608 l 410 613 l 346 608 z "},"v":{"ha":667,"x_min":0,"x_max":667,"o":"m 178 695 l 197 695 q 331 681 292 695 q 470 695 385 695 l 489 695 q 662 648 662 695 l 667 590 l 667 581 q 571 96 667 500 q 518 14 541 14 q 384 0 478 0 l 370 0 q 134 24 134 0 q 58 283 94 83 q 0 576 0 507 l 0 581 q 77 690 0 690 l 178 695 m 86 600 q 230 77 193 77 l 317 72 l 370 72 q 470 106 470 72 q 566 576 566 485 l 566 609 q 504 623 566 623 l 484 623 l 403 618 l 398 537 l 403 350 q 389 220 398 254 l 364 225 l 307 225 q 273 240 291 225 l 259 618 l 130 623 l 125 623 q 86 600 98 623 z "},"w":{"ha":858,"x_min":0,"x_max":848,"o":"m 197 699 l 453 694 l 487 699 l 549 685 l 555 685 l 738 704 l 743 704 q 848 651 825 704 q 718 19 848 497 q 574 0 637 0 l 526 0 q 429 34 468 0 l 425 34 q 275 0 425 0 q 140 29 140 0 q 43 381 94 94 q 0 598 0 501 l 0 608 q 29 685 0 685 l 197 699 m 101 622 q 217 82 101 491 l 265 73 q 347 96 347 73 q 405 241 366 211 l 434 260 q 458 236 434 236 q 496 125 479 236 q 549 73 511 73 q 631 82 631 76 q 747 578 670 160 l 747 622 l 723 627 l 675 627 q 608 598 608 627 q 521 429 583 429 l 507 429 q 448 477 448 429 q 482 622 448 504 l 458 627 l 391 627 l 366 622 l 395 496 l 395 444 q 361 425 387 425 l 347 425 q 241 578 259 425 l 231 622 l 159 627 l 135 627 l 101 622 z "},"x":{"ha":671,"x_min":0,"x_max":675,"o":"m 164 699 l 222 699 q 338 685 281 699 q 530 704 458 704 l 540 704 q 665 627 646 704 l 665 583 q 593 357 665 499 q 675 77 675 189 l 675 29 q 477 0 675 3 q 342 14 411 0 q 174 0 264 0 l 135 0 q 0 39 0 9 l 0 53 q 77 352 0 166 q 14 608 14 488 q 87 690 14 690 q 164 699 108 699 m 111 603 q 155 405 111 549 l 178 405 q 246 381 246 401 l 246 347 q 169 304 246 304 l 159 304 q 96 77 96 104 l 155 73 l 270 77 l 275 82 l 275 203 q 294 279 278 279 l 361 279 q 405 251 388 279 l 405 87 q 507 73 405 73 q 583 82 562 73 q 516 309 555 201 l 507 309 q 429 338 429 312 l 429 361 q 496 400 429 400 q 535 463 535 405 q 564 617 564 553 l 559 617 l 521 627 l 453 627 q 400 612 400 627 l 400 516 l 405 487 q 386 434 398 434 l 290 434 q 270 496 273 434 l 270 622 l 222 627 l 188 627 q 111 603 111 627 z "},"y":{"ha":707,"x_min":0,"x_max":708,"o":"m 156 689 l 165 689 q 345 675 258 689 q 524 689 448 689 l 547 689 q 708 646 664 689 q 585 255 702 529 l 528 231 l 528 227 l 533 94 q 434 0 533 17 l 397 0 q 193 43 220 0 q 179 109 179 79 l 179 231 q 123 250 179 241 q 14 557 109 258 l 0 651 q 156 689 49 689 m 94 609 l 198 311 q 274 212 274 311 l 274 193 l 269 161 q 307 75 269 75 l 378 75 q 439 118 439 75 l 444 165 l 439 269 q 515 316 439 300 q 609 609 585 515 q 533 618 583 618 l 420 614 l 415 566 l 415 420 q 330 401 415 401 q 288 486 288 401 l 292 590 q 193 618 292 618 l 161 618 l 94 609 z "},"z":{"ha":582,"x_min":0,"x_max":582,"o":"m 277 703 l 320 703 q 553 679 553 703 q 582 562 582 631 q 538 393 582 393 l 499 349 q 572 320 572 349 l 582 199 l 582 165 q 494 9 582 9 l 345 9 l 126 0 q 0 146 0 0 l 0 170 q 92 368 0 304 q 14 519 14 368 l 14 548 q 97 699 14 699 l 277 703 m 126 631 q 106 524 106 576 l 117 446 q 233 465 189 465 q 277 446 277 465 q 126 257 268 409 q 97 165 97 210 l 97 155 q 140 83 97 83 l 257 73 l 262 73 q 480 102 480 73 l 490 189 l 490 233 q 480 267 490 267 l 368 248 l 354 248 q 311 271 330 248 l 311 281 q 490 524 490 467 l 490 548 q 427 635 490 635 l 248 635 l 126 631 z "},"{":{"ha":464,"x_min":0,"x_max":0,"o":""},"|":{"ha":361,"x_min":0,"x_max":0,"o":""},"}":{"ha":464,"x_min":0,"x_max":0,"o":""},"~":{"ha":811,"x_min":0,"x_max":0,"o":""},"Ä":{"ha":926,"x_min":0,"x_max":0,"o":""},"Å":{"ha":926,"x_min":0,"x_max":0,"o":""},"Ç":{"ha":1003,"x_min":0,"x_max":0,"o":""},"É":{"ha":926,"x_min":0,"x_max":0,"o":""},"Ñ":{"ha":1003,"x_min":0,"x_max":0,"o":""},"Ö":{"ha":1080,"x_min":0,"x_max":0,"o":""},"Ü":{"ha":1003,"x_min":0,"x_max":0,"o":""},"á":{"ha":772,"x_min":0,"x_max":0,"o":""},"à":{"ha":772,"x_min":0,"x_max":0,"o":""},"â":{"ha":772,"x_min":0,"x_max":0,"o":""},"ä":{"ha":772,"x_min":0,"x_max":0,"o":""},"ã":{"ha":772,"x_min":0,"x_max":0,"o":""},"å":{"ha":772,"x_min":0,"x_max":0,"o":""},"ç":{"ha":694,"x_min":0,"x_max":0,"o":""},"é":{"ha":772,"x_min":0,"x_max":0,"o":""},"è":{"ha":772,"x_min":0,"x_max":0,"o":""},"ê":{"ha":772,"x_min":0,"x_max":0,"o":""},"ë":{"ha":772,"x_min":0,"x_max":0,"o":""},"í":{"ha":386,"x_min":0,"x_max":0,"o":""},"ì":{"ha":386,"x_min":0,"x_max":0,"o":""},"î":{"ha":386,"x_min":0,"x_max":0,"o":""},"ï":{"ha":386,"x_min":0,"x_max":0,"o":""},"ñ":{"ha":772,"x_min":0,"x_max":0,"o":""},"ó":{"ha":772,"x_min":0,"x_max":0,"o":""},"ò":{"ha":772,"x_min":0,"x_max":0,"o":""},"ô":{"ha":772,"x_min":0,"x_max":0,"o":""},"ö":{"ha":772,"x_min":0,"x_max":0,"o":""},"õ":{"ha":772,"x_min":0,"x_max":0,"o":""},"ú":{"ha":772,"x_min":0,"x_max":0,"o":""},"ù":{"ha":772,"x_min":0,"x_max":0,"o":""},"û":{"ha":772,"x_min":0,"x_max":0,"o":""},"ü":{"ha":772,"x_min":0,"x_max":0,"o":""},"†":{"ha":772,"x_min":0,"x_max":0,"o":""},"°":{"ha":555,"x_min":0,"x_max":0,"o":""},"¢":{"ha":772,"x_min":0,"x_max":0,"o":""},"£":{"ha":772,"x_min":0,"x_max":0,"o":""},"§":{"ha":772,"x_min":0,"x_max":0,"o":""},"•":{"ha":486,"x_min":0,"x_max":0,"o":""},"¶":{"ha":746,"x_min":0,"x_max":0,"o":""},"ß":{"ha":848,"x_min":0,"x_max":0,"o":""},"®":{"ha":1023,"x_min":0,"x_max":0,"o":""},"©":{"ha":1023,"x_min":0,"x_max":0,"o":""},"™":{"ha":1389,"x_min":0,"x_max":0,"o":""},"´":{"ha":463,"x_min":0,"x_max":0,"o":""},"¨":{"ha":463,"x_min":0,"x_max":0,"o":""},"≠":{"ha":762,"x_min":0,"x_max":0,"o":""},"Æ":{"ha":1389,"x_min":0,"x_max":0,"o":""},"Ø":{"ha":1080,"x_min":0,"x_max":0,"o":""},"∞":{"ha":990,"x_min":0,"x_max":0,"o":""},"±":{"ha":762,"x_min":0,"x_max":0,"o":""},"≤":{"ha":762,"x_min":0,"x_max":0,"o":""},"≥":{"ha":762,"x_min":0,"x_max":0,"o":""},"¥":{"ha":772,"x_min":0,"x_max":0,"o":""},"µ":{"ha":800,"x_min":0,"x_max":0,"o":""},"∂":{"ha":686,"x_min":0,"x_max":0,"o":""},"∑":{"ha":990,"x_min":0,"x_max":0,"o":""},"∏":{"ha":1143,"x_min":0,"x_max":0,"o":""},"∫":{"ha":380,"x_min":0,"x_max":0,"o":""},"ª":{"ha":514,"x_min":0,"x_max":0,"o":""},"º":{"ha":507,"x_min":0,"x_max":0,"o":""},"Ω":{"ha":1067,"x_min":0,"x_max":0,"o":""},"æ":{"ha":1235,"x_min":0,"x_max":0,"o":""},"ø":{"ha":848,"x_min":0,"x_max":0,"o":""},"¿":{"ha":848,"x_min":0,"x_max":0,"o":""},"¡":{"ha":463,"x_min":0,"x_max":0,"o":""},"¬":{"ha":811,"x_min":0,"x_max":0,"o":""},"√":{"ha":762,"x_min":0,"x_max":0,"o":""},"ƒ":{"ha":772,"x_min":0,"x_max":0,"o":""},"≈":{"ha":762,"x_min":0,"x_max":0,"o":""},"∆":{"ha":850,"x_min":0,"x_max":0,"o":""},"«":{"ha":772,"x_min":0,"x_max":0,"o":""},"»":{"ha":772,"x_min":0,"x_max":0,"o":""},"…":{"ha":1389,"x_min":0,"x_max":0,"o":""},"À":{"ha":926,"x_min":0,"x_max":0,"o":""},"Ã":{"ha":926,"x_min":0,"x_max":0,"o":""},"Õ":{"ha":1080,"x_min":0,"x_max":0,"o":""},"Œ":{"ha":1389,"x_min":0,"x_max":0,"o":""},"œ":{"ha":1311,"x_min":0,"x_max":0,"o":""},"–":{"ha":772,"x_min":0,"x_max":0,"o":""},"—":{"ha":1389,"x_min":0,"x_max":0,"o":""},"“":{"ha":463,"x_min":0,"x_max":0,"o":""},"”":{"ha":463,"x_min":0,"x_max":0,"o":""},"‘":{"ha":309,"x_min":0,"x_max":0,"o":""},"’":{"ha":309,"x_min":0,"x_max":0,"o":""},"÷":{"ha":762,"x_min":0,"x_max":0,"o":""},"◊":{"ha":686,"x_min":0,"x_max":0,"o":""},"ÿ":{"ha":694,"x_min":0,"x_max":0,"o":""},"Ÿ":{"ha":926,"x_min":0,"x_max":0,"o":""},"⁄":{"ha":232,"x_min":0,"x_max":0,"o":""},"€":{"ha":772,"x_min":0,"x_max":0,"o":""},"‹":{"ha":463,"x_min":0,"x_max":0,"o":""},"›":{"ha":463,"x_min":0,"x_max":0,"o":""},"":{"ha":694,"x_min":0,"x_max":0,"o":""},"":{"ha":694,"x_min":0,"x_max":0,"o":""},"‡":{"ha":772,"x_min":0,"x_max":0,"o":""},"·":{"ha":386,"x_min":0,"x_max":0,"o":""},"‚":{"ha":309,"x_min":0,"x_max":0,"o":""},"„":{"ha":463,"x_min":0,"x_max":0,"o":""},"‰":{"ha":1389,"x_min":0,"x_max":0,"o":""},"Â":{"ha":926,"x_min":0,"x_max":0,"o":""},"Ê":{"ha":926,"x_min":0,"x_max":0,"o":""},"Á":{"ha":926,"x_min":0,"x_max":0,"o":""},"Ë":{"ha":926,"x_min":0,"x_max":0,"o":""},"È":{"ha":926,"x_min":0,"x_max":0,"o":""},"Í":{"ha":386,"x_min":0,"x_max":0,"o":""},"Î":{"ha":386,"x_min":0,"x_max":0,"o":""},"Ï":{"ha":386,"x_min":0,"x_max":0,"o":""},"Ì":{"ha":386,"x_min":0,"x_max":0,"o":""},"Ó":{"ha":1080,"x_min":0,"x_max":0,"o":""},"Ô":{"ha":1080,"x_min":0,"x_max":0,"o":""},"Ò":{"ha":1080,"x_min":0,"x_max":0,"o":""},"Ú":{"ha":1003,"x_min":0,"x_max":0,"o":""},"Û":{"ha":1003,"x_min":0,"x_max":0,"o":""},"Ù":{"ha":1003,"x_min":0,"x_max":0,"o":""},"ı":{"ha":386,"x_min":0,"x_max":0,"o":""},"ˆ":{"ha":463,"x_min":0,"x_max":0,"o":""},"˜":{"ha":463,"x_min":0,"x_max":0,"o":""},"ˉ":{"ha":463,"x_min":0,"x_max":0,"o":""},"˘":{"ha":463,"x_min":0,"x_max":0,"o":""},"˙":{"ha":463,"x_min":0,"x_max":0,"o":""},"˚":{"ha":463,"x_min":0,"x_max":0,"o":""},"¸":{"ha":463,"x_min":0,"x_max":0,"o":""},"˝":{"ha":463,"x_min":0,"x_max":0,"o":""},"˛":{"ha":463,"x_min":0,"x_max":0,"o":""},"ˇ":{"ha":463,"x_min":0,"x_max":0,"o":""},"Ł":{"ha":772,"x_min":0,"x_max":0,"o":""},"ł":{"ha":309,"x_min":0,"x_max":0,"o":""},"Š":{"ha":926,"x_min":0,"x_max":0,"o":""},"š":{"ha":694,"x_min":0,"x_max":0,"o":""},"Ž":{"ha":848,"x_min":0,"x_max":0,"o":""},"ž":{"ha":694,"x_min":0,"x_max":0,"o":""},"¦":{"ha":361,"x_min":0,"x_max":0,"o":""},"Ð":{"ha":1003,"x_min":0,"x_max":0,"o":""},"ð":{"ha":772,"x_min":0,"x_max":0,"o":""},"Ý":{"ha":926,"x_min":0,"x_max":0,"o":""},"ý":{"ha":694,"x_min":0,"x_max":0,"o":""},"Þ":{"ha":926,"x_min":0,"x_max":0,"o":""},"þ":{"ha":772,"x_min":0,"x_max":0,"o":""},"−":{"ha":811,"x_min":0,"x_max":0,"o":""},"×":{"ha":811,"x_min":0,"x_max":0,"o":""},"¹":{"ha":463,"x_min":0,"x_max":0,"o":""},"²":{"ha":463,"x_min":0,"x_max":0,"o":""},"³":{"ha":463,"x_min":0,"x_max":0,"o":""},"½":{"ha":1158,"x_min":0,"x_max":0,"o":""},"¼":{"ha":1158,"x_min":0,"x_max":0,"o":""},"¾":{"ha":1158,"x_min":0,"x_max":0,"o":""},"₣":{"ha":772,"x_min":0,"x_max":0,"o":""},"Ğ":{"ha":1080,"x_min":0,"x_max":0,"o":""},"ğ":{"ha":772,"x_min":0,"x_max":0,"o":""},"İ":{"ha":386,"x_min":0,"x_max":0,"o":""},"Ş":{"ha":926,"x_min":0,"x_max":0,"o":""},"ş":{"ha":694,"x_min":0,"x_max":0,"o":""},"Ć":{"ha":1003,"x_min":0,"x_max":0,"o":""},"ć":{"ha":694,"x_min":0,"x_max":0,"o":""},"Č":{"ha":1003,"x_min":0,"x_max":0,"o":""},"č":{"ha":694,"x_min":0,"x_max":0,"o":""},"đ":{"ha":772,"x_min":0,"x_max":0,"o":""},"¤":{"ha":772,"x_min":0,"x_max":0,"o":""},"¯":{"ha":767,"x_min":0,"x_max":0,"o":""},"Ā":{"ha":926,"x_min":0,"x_max":0,"o":""},"ā":{"ha":772,"x_min":0,"x_max":0,"o":""},"Ă":{"ha":926,"x_min":0,"x_max":0,"o":""},"ă":{"ha":772,"x_min":0,"x_max":0,"o":""},"Ą":{"ha":926,"x_min":0,"x_max":0,"o":""},"ą":{"ha":772,"x_min":0,"x_max":0,"o":""},"Ĉ":{"ha":1003,"x_min":0,"x_max":0,"o":""},"ĉ":{"ha":694,"x_min":0,"x_max":0,"o":""},"Ċ":{"ha":1003,"x_min":0,"x_max":0,"o":""},"ċ":{"ha":694,"x_min":0,"x_max":0,"o":""},"Ď":{"ha":1003,"x_min":0,"x_max":0,"o":""},"ď":{"ha":854,"x_min":0,"x_max":0,"o":""},"Đ":{"ha":1003,"x_min":0,"x_max":0,"o":""},"Ē":{"ha":926,"x_min":0,"x_max":0,"o":""},"ē":{"ha":772,"x_min":0,"x_max":0,"o":""},"Ĕ":{"ha":926,"x_min":0,"x_max":0,"o":""},"ĕ":{"ha":772,"x_min":0,"x_max":0,"o":""},"Ė":{"ha":926,"x_min":0,"x_max":0,"o":""},"ė":{"ha":772,"x_min":0,"x_max":0,"o":""},"Ę":{"ha":926,"x_min":0,"x_max":0,"o":""},"ę":{"ha":772,"x_min":0,"x_max":0,"o":""},"Ě":{"ha":926,"x_min":0,"x_max":0,"o":""},"ě":{"ha":772,"x_min":0,"x_max":0,"o":""},"Ĝ":{"ha":1080,"x_min":0,"x_max":0,"o":""},"ĝ":{"ha":772,"x_min":0,"x_max":0,"o":""},"Ġ":{"ha":1080,"x_min":0,"x_max":0,"o":""},"ġ":{"ha":772,"x_min":0,"x_max":0,"o":""},"Ģ":{"ha":1080,"x_min":0,"x_max":0,"o":""},"ģ":{"ha":772,"x_min":0,"x_max":0,"o":""},"Ĥ":{"ha":1003,"x_min":0,"x_max":0,"o":""},"ĥ":{"ha":772,"x_min":0,"x_max":0,"o":""},"Ħ":{"ha":1003,"x_min":0,"x_max":0,"o":""},"ħ":{"ha":772,"x_min":0,"x_max":0,"o":""},"Ĩ":{"ha":386,"x_min":0,"x_max":0,"o":""},"ĩ":{"ha":386,"x_min":0,"x_max":0,"o":""},"Ī":{"ha":386,"x_min":0,"x_max":0,"o":""},"ī":{"ha":386,"x_min":0,"x_max":0,"o":""},"Ĭ":{"ha":386,"x_min":0,"x_max":0,"o":""},"ĭ":{"ha":386,"x_min":0,"x_max":0,"o":""},"Į":{"ha":386,"x_min":0,"x_max":0,"o":""},"į":{"ha":309,"x_min":0,"x_max":0,"o":""},"Ĳ":{"ha":1021,"x_min":0,"x_max":0,"o":""},"ĳ":{"ha":616,"x_min":0,"x_max":0,"o":""},"Ĵ":{"ha":694,"x_min":0,"x_max":0,"o":""},"ĵ":{"ha":309,"x_min":0,"x_max":0,"o":""},"Ķ":{"ha":926,"x_min":0,"x_max":0,"o":""},"ķ":{"ha":694,"x_min":0,"x_max":0,"o":""},"ĸ":{"ha":694,"x_min":0,"x_max":0,"o":""},"Ĺ":{"ha":772,"x_min":0,"x_max":0,"o":""},"ĺ":{"ha":309,"x_min":0,"x_max":0,"o":""},"Ļ":{"ha":772,"x_min":0,"x_max":0,"o":""},"ļ":{"ha":309,"x_min":0,"x_max":0,"o":""},"Ľ":{"ha":772,"x_min":0,"x_max":0,"o":""},"ľ":{"ha":405,"x_min":0,"x_max":0,"o":""},"Ŀ":{"ha":772,"x_min":0,"x_max":0,"o":""},"ŀ":{"ha":464,"x_min":0,"x_max":0,"o":""},"Ń":{"ha":1003,"x_min":0,"x_max":0,"o":""},"ń":{"ha":772,"x_min":0,"x_max":0,"o":""},"Ņ":{"ha":1003,"x_min":0,"x_max":0,"o":""},"ņ":{"ha":772,"x_min":0,"x_max":0,"o":""},"Ň":{"ha":1003,"x_min":0,"x_max":0,"o":""},"ň":{"ha":772,"x_min":0,"x_max":0,"o":""},"ŉ":{"ha":839,"x_min":0,"x_max":0,"o":""},"Ŋ":{"ha":1004,"x_min":0,"x_max":0,"o":""},"ŋ":{"ha":772,"x_min":0,"x_max":0,"o":""},"Ō":{"ha":1080,"x_min":0,"x_max":0,"o":""},"ō":{"ha":772,"x_min":0,"x_max":0,"o":""},"Ŏ":{"ha":1080,"x_min":0,"x_max":0,"o":""},"ŏ":{"ha":772,"x_min":0,"x_max":0,"o":""},"Ő":{"ha":1080,"x_min":0,"x_max":0,"o":""},"ő":{"ha":772,"x_min":0,"x_max":0,"o":""},"Ŕ":{"ha":1003,"x_min":0,"x_max":0,"o":""},"ŕ":{"ha":463,"x_min":0,"x_max":0,"o":""},"Ŗ":{"ha":1003,"x_min":0,"x_max":0,"o":""},"ŗ":{"ha":463,"x_min":0,"x_max":0,"o":""},"Ř":{"ha":1003,"x_min":0,"x_max":0,"o":""},"ř":{"ha":463,"x_min":0,"x_max":0,"o":""},"Ś":{"ha":926,"x_min":0,"x_max":0,"o":""},"ś":{"ha":694,"x_min":0,"x_max":0,"o":""},"Ŝ":{"ha":926,"x_min":0,"x_max":0,"o":""},"ŝ":{"ha":694,"x_min":0,"x_max":0,"o":""},"Ţ":{"ha":848,"x_min":0,"x_max":0,"o":""},"ţ":{"ha":386,"x_min":0,"x_max":0,"o":""},"Ť":{"ha":848,"x_min":0,"x_max":0,"o":""},"ť":{"ha":521,"x_min":0,"x_max":0,"o":""},"Ŧ":{"ha":848,"x_min":0,"x_max":0,"o":""},"ŧ":{"ha":386,"x_min":0,"x_max":0,"o":""},"Ũ":{"ha":1003,"x_min":0,"x_max":0,"o":""},"ũ":{"ha":772,"x_min":0,"x_max":0,"o":""},"Ū":{"ha":1003,"x_min":0,"x_max":0,"o":""},"ū":{"ha":772,"x_min":0,"x_max":0,"o":""},"Ŭ":{"ha":1003,"x_min":0,"x_max":0,"o":""},"ŭ":{"ha":772,"x_min":0,"x_max":0,"o":""},"Ů":{"ha":1003,"x_min":0,"x_max":0,"o":""},"ů":{"ha":772,"x_min":0,"x_max":0,"o":""},"Ű":{"ha":1003,"x_min":0,"x_max":0,"o":""},"ű":{"ha":772,"x_min":0,"x_max":0,"o":""},"Ų":{"ha":1003,"x_min":0,"x_max":0,"o":""},"ų":{"ha":772,"x_min":0,"x_max":0,"o":""},"Ŵ":{"ha":1311,"x_min":0,"x_max":0,"o":""},"ŵ":{"ha":1003,"x_min":0,"x_max":0,"o":""},"Ŷ":{"ha":926,"x_min":0,"x_max":0,"o":""},"ŷ":{"ha":694,"x_min":0,"x_max":0,"o":""},"Ź":{"ha":848,"x_min":0,"x_max":0,"o":""},"ź":{"ha":694,"x_min":0,"x_max":0,"o":""},"Ż":{"ha":848,"x_min":0,"x_max":0,"o":""},"ż":{"ha":694,"x_min":0,"x_max":0,"o":""},"ſ":{"ha":309,"x_min":0,"x_max":0,"o":""},"Ǻ":{"ha":926,"x_min":0,"x_max":0,"o":""},"ǻ":{"ha":772,"x_min":0,"x_max":0,"o":""},"Ǽ":{"ha":1389,"x_min":0,"x_max":0,"o":""},"ǽ":{"ha":1235,"x_min":0,"x_max":0,"o":""},"Ǿ":{"ha":1080,"x_min":0,"x_max":0,"o":""},"ǿ":{"ha":848,"x_min":0,"x_max":0,"o":""},"΄":{"ha":463,"x_min":0,"x_max":0,"o":""},"΅":{"ha":463,"x_min":0,"x_max":0,"o":""},"Ά":{"ha":927,"x_min":0,"x_max":0,"o":""},"·":{"ha":386,"x_min":0,"x_max":0,"o":""},"Έ":{"ha":1089,"x_min":0,"x_max":0,"o":""},"Ή":{"ha":1164,"x_min":0,"x_max":0,"o":""},"Ί":{"ha":533,"x_min":0,"x_max":0,"o":""},"Ό":{"ha":1076,"x_min":0,"x_max":0,"o":""},"Ύ":{"ha":1188,"x_min":0,"x_max":0,"o":""},"Ώ":{"ha":1045,"x_min":0,"x_max":0,"o":""},"ΐ":{"ha":309,"x_min":0,"x_max":0,"o":""},"Α":{"ha":926,"x_min":0,"x_max":0,"o":""},"Β":{"ha":926,"x_min":0,"x_max":0,"o":""},"Γ":{"ha":765,"x_min":0,"x_max":0,"o":""},"Δ":{"ha":928,"x_min":0,"x_max":0,"o":""},"Ε":{"ha":926,"x_min":0,"x_max":0,"o":""},"Ζ":{"ha":848,"x_min":0,"x_max":0,"o":""},"Η":{"ha":1003,"x_min":0,"x_max":0,"o":""},"Θ":{"ha":1080,"x_min":0,"x_max":0,"o":""},"Ι":{"ha":386,"x_min":0,"x_max":0,"o":""},"Κ":{"ha":926,"x_min":0,"x_max":0,"o":""},"Λ":{"ha":928,"x_min":0,"x_max":0,"o":""},"Μ":{"ha":1157,"x_min":0,"x_max":0,"o":""},"Ν":{"ha":1003,"x_min":0,"x_max":0,"o":""},"Ξ":{"ha":903,"x_min":0,"x_max":0,"o":""},"Ο":{"ha":1080,"x_min":0,"x_max":0,"o":""},"Π":{"ha":1003,"x_min":0,"x_max":0,"o":""},"Ρ":{"ha":926,"x_min":0,"x_max":0,"o":""},"Σ":{"ha":859,"x_min":0,"x_max":0,"o":""},"Τ":{"ha":848,"x_min":0,"x_max":0,"o":""},"Υ":{"ha":926,"x_min":0,"x_max":0,"o":""},"Φ":{"ha":1108,"x_min":0,"x_max":0,"o":""},"Χ":{"ha":926,"x_min":0,"x_max":0,"o":""},"Ψ":{"ha":1160,"x_min":0,"x_max":0,"o":""},"Ω":{"ha":1038,"x_min":0,"x_max":0,"o":""},"Ϊ":{"ha":386,"x_min":0,"x_max":0,"o":""},"Ϋ":{"ha":926,"x_min":0,"x_max":0,"o":""},"ά":{"ha":803,"x_min":0,"x_max":0,"o":""},"έ":{"ha":619,"x_min":0,"x_max":0,"o":""},"ή":{"ha":772,"x_min":0,"x_max":0,"o":""},"ί":{"ha":309,"x_min":0,"x_max":0,"o":""},"ΰ":{"ha":760,"x_min":0,"x_max":0,"o":""},"α":{"ha":803,"x_min":0,"x_max":0,"o":""},"β":{"ha":799,"x_min":0,"x_max":0,"o":""},"γ":{"ha":694,"x_min":0,"x_max":0,"o":""},"δ":{"ha":773,"x_min":0,"x_max":0,"o":""},"ε":{"ha":619,"x_min":0,"x_max":0,"o":""},"ζ":{"ha":612,"x_min":0,"x_max":0,"o":""},"η":{"ha":772,"x_min":0,"x_max":0,"o":""},"θ":{"ha":772,"x_min":0,"x_max":0,"o":""},"ι":{"ha":309,"x_min":0,"x_max":0,"o":""},"κ":{"ha":694,"x_min":0,"x_max":0,"o":""},"λ":{"ha":694,"x_min":0,"x_max":0,"o":""},"μ":{"ha":800,"x_min":0,"x_max":0,"o":""},"ν":{"ha":694,"x_min":0,"x_max":0,"o":""},"ξ":{"ha":622,"x_min":0,"x_max":0,"o":""},"ο":{"ha":772,"x_min":0,"x_max":0,"o":""},"π":{"ha":958,"x_min":0,"x_max":0,"o":""},"ρ":{"ha":790,"x_min":0,"x_max":0,"o":""},"ς":{"ha":669,"x_min":0,"x_max":0,"o":""},"σ":{"ha":857,"x_min":0,"x_max":0,"o":""},"τ":{"ha":549,"x_min":0,"x_max":0,"o":""},"υ":{"ha":760,"x_min":0,"x_max":0,"o":""},"φ":{"ha":901,"x_min":0,"x_max":0,"o":""},"χ":{"ha":729,"x_min":0,"x_max":0,"o":""},"ψ":{"ha":990,"x_min":0,"x_max":0,"o":""},"ω":{"ha":1084,"x_min":0,"x_max":0,"o":""},"ϊ":{"ha":309,"x_min":0,"x_max":0,"o":""},"ϋ":{"ha":760,"x_min":0,"x_max":0,"o":""},"ό":{"ha":772,"x_min":0,"x_max":0,"o":""},"ύ":{"ha":760,"x_min":0,"x_max":0,"o":""},"ώ":{"ha":1084,"x_min":0,"x_max":0,"o":""},"Ё":{"ha":927,"x_min":0,"x_max":0,"o":""},"Ђ":{"ha":1201,"x_min":0,"x_max":0,"o":""},"Ѓ":{"ha":752,"x_min":0,"x_max":0,"o":""},"Є":{"ha":998,"x_min":0,"x_max":0,"o":""},"Ѕ":{"ha":926,"x_min":0,"x_max":0,"o":""},"І":{"ha":386,"x_min":0,"x_max":0,"o":""},"Ї":{"ha":386,"x_min":0,"x_max":0,"o":""},"Ј":{"ha":694,"x_min":0,"x_max":0,"o":""},"Љ":{"ha":1468,"x_min":0,"x_max":0,"o":""},"Њ":{"ha":1403,"x_min":0,"x_max":0,"o":""},"Ћ":{"ha":1186,"x_min":0,"x_max":0,"o":""},"Ќ":{"ha":809,"x_min":0,"x_max":0,"o":""},"Ў":{"ha":882,"x_min":0,"x_max":0,"o":""},"Џ":{"ha":998,"x_min":0,"x_max":0,"o":""},"А":{"ha":926,"x_min":0,"x_max":0,"o":""},"Б":{"ha":911,"x_min":0,"x_max":0,"o":""},"В":{"ha":926,"x_min":0,"x_max":0,"o":""},"Г":{"ha":752,"x_min":0,"x_max":0,"o":""},"Д":{"ha":941,"x_min":0,"x_max":0,"o":""},"Е":{"ha":926,"x_min":0,"x_max":0,"o":""},"Ж":{"ha":1282,"x_min":0,"x_max":0,"o":""},"З":{"ha":839,"x_min":0,"x_max":0,"o":""},"И":{"ha":998,"x_min":0,"x_max":0,"o":""},"Й":{"ha":998,"x_min":0,"x_max":0,"o":""},"К":{"ha":809,"x_min":0,"x_max":0,"o":""},"Л":{"ha":911,"x_min":0,"x_max":0,"o":""},"М":{"ha":1157,"x_min":0,"x_max":0,"o":""},"Н":{"ha":1003,"x_min":0,"x_max":0,"o":""},"О":{"ha":1080,"x_min":0,"x_max":0,"o":""},"П":{"ha":998,"x_min":0,"x_max":0,"o":""},"Р":{"ha":926,"x_min":0,"x_max":0,"o":""},"С":{"ha":1003,"x_min":0,"x_max":0,"o":""},"Т":{"ha":848,"x_min":0,"x_max":0,"o":""},"У":{"ha":882,"x_min":0,"x_max":0,"o":""},"Ф":{"ha":1056,"x_min":0,"x_max":0,"o":""},"Х":{"ha":926,"x_min":0,"x_max":0,"o":""},"Ц":{"ha":1027,"x_min":0,"x_max":0,"o":""},"Ч":{"ha":926,"x_min":0,"x_max":0,"o":""},"Ш":{"ha":1273,"x_min":0,"x_max":0,"o":""},"Щ":{"ha":1302,"x_min":0,"x_max":0,"o":""},"Ъ":{"ha":1099,"x_min":0,"x_max":0,"o":""},"Ы":{"ha":1230,"x_min":0,"x_max":0,"o":""},"Ь":{"ha":911,"x_min":0,"x_max":0,"o":""},"Э":{"ha":998,"x_min":0,"x_max":0,"o":""},"Ю":{"ha":1403,"x_min":0,"x_max":0,"o":""},"Я":{"ha":1003,"x_min":0,"x_max":0,"o":""},"а":{"ha":772,"x_min":0,"x_max":0,"o":""},"б":{"ha":795,"x_min":0,"x_max":0,"o":""},"в":{"ha":738,"x_min":0,"x_max":0,"o":""},"г":{"ha":507,"x_min":0,"x_max":0,"o":""},"д":{"ha":810,"x_min":0,"x_max":0,"o":""},"е":{"ha":772,"x_min":0,"x_max":0,"o":""},"ж":{"ha":929,"x_min":0,"x_max":0,"o":""},"з":{"ha":637,"x_min":0,"x_max":0,"o":""},"и":{"ha":776,"x_min":0,"x_max":0,"o":""},"й":{"ha":776,"x_min":0,"x_max":0,"o":""},"к":{"ha":608,"x_min":0,"x_max":0,"o":""},"л":{"ha":810,"x_min":0,"x_max":0,"o":""},"м":{"ha":955,"x_min":0,"x_max":0,"o":""},"н":{"ha":767,"x_min":0,"x_max":0,"o":""},"о":{"ha":772,"x_min":0,"x_max":0,"o":""},"п":{"ha":752,"x_min":0,"x_max":0,"o":""},"р":{"ha":772,"x_min":0,"x_max":0,"o":""},"с":{"ha":694,"x_min":0,"x_max":0,"o":""},"т":{"ha":636,"x_min":0,"x_max":0,"o":""},"у":{"ha":694,"x_min":0,"x_max":0,"o":""},"ф":{"ha":1143,"x_min":0,"x_max":0,"o":""},"х":{"ha":694,"x_min":0,"x_max":0,"o":""},"ц":{"ha":795,"x_min":0,"x_max":0,"o":""},"ч":{"ha":724,"x_min":0,"x_max":0,"o":""},"ш":{"ha":1114,"x_min":0,"x_max":0,"o":""},"щ":{"ha":1143,"x_min":0,"x_max":0,"o":""},"ъ":{"ha":868,"x_min":0,"x_max":0,"o":""},"ы":{"ha":998,"x_min":0,"x_max":0,"o":""},"ь":{"ha":724,"x_min":0,"x_max":0,"o":""},"э":{"ha":709,"x_min":0,"x_max":0,"o":""},"ю":{"ha":1042,"x_min":0,"x_max":0,"o":""},"я":{"ha":752,"x_min":0,"x_max":0,"o":""},"ё":{"ha":772,"x_min":0,"x_max":0,"o":""},"ђ":{"ha":772,"x_min":0,"x_max":0,"o":""},"ѓ":{"ha":507,"x_min":0,"x_max":0,"o":""},"є":{"ha":709,"x_min":0,"x_max":0,"o":""},"ѕ":{"ha":694,"x_min":0,"x_max":0,"o":""},"і":{"ha":309,"x_min":0,"x_max":0,"o":""},"ї":{"ha":386,"x_min":0,"x_max":0,"o":""},"ј":{"ha":309,"x_min":0,"x_max":0,"o":""},"љ":{"ha":1259,"x_min":0,"x_max":0,"o":""},"њ":{"ha":1128,"x_min":0,"x_max":0,"o":""},"ћ":{"ha":772,"x_min":0,"x_max":0,"o":""},"ќ":{"ha":608,"x_min":0,"x_max":0,"o":""},"ў":{"ha":694,"x_min":0,"x_max":0,"o":""},"џ":{"ha":767,"x_min":0,"x_max":0,"o":""},"Ґ":{"ha":679,"x_min":0,"x_max":0,"o":""},"ґ":{"ha":571,"x_min":0,"x_max":0,"o":""},"Ẁ":{"ha":1311,"x_min":0,"x_max":0,"o":""},"ẁ":{"ha":1003,"x_min":0,"x_max":0,"o":""},"Ẃ":{"ha":1311,"x_min":0,"x_max":0,"o":""},"ẃ":{"ha":1003,"x_min":0,"x_max":0,"o":""},"Ẅ":{"ha":1311,"x_min":0,"x_max":0,"o":""},"ẅ":{"ha":1003,"x_min":0,"x_max":0,"o":""},"Ỳ":{"ha":926,"x_min":0,"x_max":0,"o":""},"ỳ":{"ha":694,"x_min":0,"x_max":0,"o":""},"―":{"ha":1389,"x_min":0,"x_max":0,"o":""},"‗":{"ha":767,"x_min":0,"x_max":0,"o":""},"‛":{"ha":309,"x_min":0,"x_max":0,"o":""},"′":{"ha":260,"x_min":0,"x_max":0,"o":""},"″":{"ha":492,"x_min":0,"x_max":0,"o":""},"‼":{"ha":694,"x_min":0,"x_max":0,"o":""},"‾":{"ha":463,"x_min":0,"x_max":0,"o":""},"ⁿ":{"ha":507,"x_min":0,"x_max":0,"o":""},"₤":{"ha":772,"x_min":0,"x_max":0,"o":""},"₧":{"ha":1519,"x_min":0,"x_max":0,"o":""},"℅":{"ha":1230,"x_min":0,"x_max":0,"o":""},"ℓ":{"ha":449,"x_min":0,"x_max":0,"o":""},"№":{"ha":1490,"x_min":0,"x_max":0,"o":""},"℮":{"ha":833,"x_min":0,"x_max":0,"o":""},"⅛":{"ha":1158,"x_min":0,"x_max":0,"o":""},"⅜":{"ha":1158,"x_min":0,"x_max":0,"o":""},"⅝":{"ha":1158,"x_min":0,"x_max":0,"o":""},"⅞":{"ha":1158,"x_min":0,"x_max":0,"o":""},"←":{"ha":1389,"x_min":0,"x_max":0,"o":""},"↑":{"ha":694,"x_min":0,"x_max":0,"o":""},"→":{"ha":1389,"x_min":0,"x_max":0,"o":""},"↓":{"ha":694,"x_min":0,"x_max":0,"o":""},"↔":{"ha":1389,"x_min":0,"x_max":0,"o":""},"↕":{"ha":694,"x_min":0,"x_max":0,"o":""},"↨":{"ha":694,"x_min":0,"x_max":0,"o":""},"∟":{"ha":1360,"x_min":0,"x_max":0,"o":""},"∩":{"ha":998,"x_min":0,"x_max":0,"o":""},"≡":{"ha":810,"x_min":0,"x_max":0,"o":""},"⌂":{"ha":839,"x_min":0,"x_max":0,"o":""},"⌐":{"ha":811,"x_min":0,"x_max":0,"o":""},"⌠":{"ha":839,"x_min":0,"x_max":0,"o":""},"⌡":{"ha":839,"x_min":0,"x_max":0,"o":""},"─":{"ha":984,"x_min":0,"x_max":0,"o":""},"│":{"ha":868,"x_min":0,"x_max":0,"o":""},"┌":{"ha":984,"x_min":0,"x_max":0,"o":""},"┐":{"ha":984,"x_min":0,"x_max":0,"o":""},"└":{"ha":984,"x_min":0,"x_max":0,"o":""},"┘":{"ha":984,"x_min":0,"x_max":0,"o":""},"├":{"ha":984,"x_min":0,"x_max":0,"o":""},"┤":{"ha":984,"x_min":0,"x_max":0,"o":""},"┬":{"ha":984,"x_min":0,"x_max":0,"o":""},"┴":{"ha":984,"x_min":0,"x_max":0,"o":""},"┼":{"ha":984,"x_min":0,"x_max":0,"o":""},"═":{"ha":984,"x_min":0,"x_max":0,"o":""},"║":{"ha":984,"x_min":0,"x_max":0,"o":""},"╒":{"ha":984,"x_min":0,"x_max":0,"o":""},"╓":{"ha":984,"x_min":0,"x_max":0,"o":""},"╔":{"ha":984,"x_min":0,"x_max":0,"o":""},"╕":{"ha":984,"x_min":0,"x_max":0,"o":""},"╖":{"ha":984,"x_min":0,"x_max":0,"o":""},"╗":{"ha":984,"x_min":0,"x_max":0,"o":""},"╘":{"ha":984,"x_min":0,"x_max":0,"o":""},"╙":{"ha":984,"x_min":0,"x_max":0,"o":""},"╚":{"ha":984,"x_min":0,"x_max":0,"o":""},"╛":{"ha":984,"x_min":0,"x_max":0,"o":""},"╜":{"ha":984,"x_min":0,"x_max":0,"o":""},"╝":{"ha":984,"x_min":0,"x_max":0,"o":""},"╞":{"ha":984,"x_min":0,"x_max":0,"o":""},"╟":{"ha":984,"x_min":0,"x_max":0,"o":""},"╠":{"ha":984,"x_min":0,"x_max":0,"o":""},"╡":{"ha":984,"x_min":0,"x_max":0,"o":""},"╢":{"ha":984,"x_min":0,"x_max":0,"o":""},"╣":{"ha":984,"x_min":0,"x_max":0,"o":""},"╤":{"ha":984,"x_min":0,"x_max":0,"o":""},"╥":{"ha":984,"x_min":0,"x_max":0,"o":""},"╦":{"ha":984,"x_min":0,"x_max":0,"o":""},"╧":{"ha":984,"x_min":0,"x_max":0,"o":""},"╨":{"ha":984,"x_min":0,"x_max":0,"o":""},"╩":{"ha":984,"x_min":0,"x_max":0,"o":""},"╪":{"ha":984,"x_min":0,"x_max":0,"o":""},"╫":{"ha":984,"x_min":0,"x_max":0,"o":""},"╬":{"ha":984,"x_min":0,"x_max":0,"o":""},"▀":{"ha":984,"x_min":0,"x_max":0,"o":""},"▄":{"ha":984,"x_min":0,"x_max":0,"o":""},"█":{"ha":984,"x_min":0,"x_max":0,"o":""},"▌":{"ha":984,"x_min":0,"x_max":0,"o":""},"▐":{"ha":984,"x_min":0,"x_max":0,"o":""},"░":{"ha":984,"x_min":0,"x_max":0,"o":""},"▒":{"ha":984,"x_min":0,"x_max":0,"o":""},"▓":{"ha":1013,"x_min":0,"x_max":0,"o":""},"■":{"ha":839,"x_min":0,"x_max":0,"o":""},"□":{"ha":839,"x_min":0,"x_max":0,"o":""},"▪":{"ha":492,"x_min":0,"x_max":0,"o":""},"▫":{"ha":492,"x_min":0,"x_max":0,"o":""},"▬":{"ha":1389,"x_min":0,"x_max":0,"o":""},"▲":{"ha":1375,"x_min":0,"x_max":0,"o":""},"►":{"ha":1375,"x_min":0,"x_max":0,"o":""},"▼":{"ha":1375,"x_min":0,"x_max":0,"o":""},"◄":{"ha":1375,"x_min":0,"x_max":0,"o":""},"○":{"ha":839,"x_min":0,"x_max":0,"o":""},"●":{"ha":839,"x_min":0,"x_max":0,"o":""},"◘":{"ha":839,"x_min":0,"x_max":0,"o":""},"◙":{"ha":839,"x_min":0,"x_max":0,"o":""},"◦":{"ha":492,"x_min":0,"x_max":0,"o":""},"☺":{"ha":1418,"x_min":0,"x_max":0,"o":""},"☻":{"ha":1461,"x_min":0,"x_max":0,"o":""},"☼":{"ha":1273,"x_min":0,"x_max":0,"o":""},"♀":{"ha":1042,"x_min":0,"x_max":0,"o":""},"♂":{"ha":1042,"x_min":0,"x_max":0,"o":""},"♠":{"ha":738,"x_min":0,"x_max":0,"o":""},"♣":{"ha":911,"x_min":0,"x_max":0,"o":""},"♥":{"ha":825,"x_min":0,"x_max":0,"o":""},"♦":{"ha":709,"x_min":0,"x_max":0,"o":""},"♪":{"ha":694,"x_min":0,"x_max":0,"o":""},"♫":{"ha":1042,"x_min":0,"x_max":0,"o":""},"":{"ha":463,"x_min":0,"x_max":0,"o":""},"":{"ha":463,"x_min":0,"x_max":0,"o":""}}}
